# xmcd CD database file
#
# Track frame offsets:
#	150
#	17422
#	30987
#	50830
#	68797
#
# Disc length: 1115 seconds
#
# Revision: 1
# Processed by: cddbd v1.4PL0 Copyright (c) Steve Scherf et al.
# Submitted via: CDex 1.50beta10
#
DISCID=36045905
DTITLE=Atari Teenage Riot - Destroy 2000 Years of Culture E.P.
DYEAR=1997
DGENRE=Digital Hardcore
TTITLE0=Destroy 2000 Year of Culture
TTITLE1=Paranoid
TTITLE2=Destroy 2000 Years of Culture (remix)
TTITLE3=You Can't Hold Us Back
TTITLE4=Untitled
EXTD=YEAR: 1997
EXTT0=
EXTT1=
EXTT2=
EXTT3=
EXTT4=
PLAYORDER=
